<svg width="96" height="93" viewBox="0 0 96 93" fill="none" xmlns="http://www.w3.org/2000/svg">
<circle cx="46.5" cy="46.5" r="46" fill="white" stroke="#CCCCCC" stroke-dasharray="5 5"/>
<g clip-path="url(#clip0)">
<path d="M48.0316 55.0595L47.1491 46.9669C47.0848 46.3793 46.6209 45.9154 46.0334 45.8511L37.9407 44.969C37.3807 44.9076 36.8479 45.2262 36.6366 45.7484L32.0851 56.9872C32.0752 57.0119 32.0661 57.0365 32.0578 57.0617C31.6566 58.2654 31.7459 59.3588 32.3091 60.1406C32.798 60.8187 33.5833 61.1924 34.5206 61.1924H34.521C34.9652 61.1924 35.4422 61.1084 35.9388 60.9427C35.9638 60.9345 35.9887 60.9253 36.0133 60.9155L47.2521 56.3639C47.7744 56.1523 48.0926 55.6199 48.0316 55.0595Z" fill="#51B9FF"/>
<path d="M47.1489 46.9668C47.1167 46.6732 46.9849 46.4104 46.7874 46.2129L32.5625 60.4377C33.05 60.9262 33.7307 61.192 34.5204 61.1923H34.5207C34.9646 61.1923 35.4419 61.1083 35.9386 60.9426C35.9635 60.9341 35.9885 60.9249 36.0131 60.9151L47.2519 56.3638C47.7742 56.1522 48.0927 55.6198 48.0314 55.0595L47.1489 46.9668Z" fill="#18A0FB"/>
<path d="M67.5 26.0514C67.0115 25.3733 66.2261 25 65.2885 25C64.8443 25 64.367 25.084 63.8703 25.2497L27.3285 37.43C25.3953 38.0747 25.0429 39.1999 25.0049 39.8131C24.9668 40.4266 25.1778 41.5866 27.0162 42.4645L40.0722 48.6997C41.5967 49.428 43.573 51.4042 44.3009 52.9287L50.5361 65.9844C51.3737 67.7382 52.4776 68 53.0612 68C53.5825 68 54.8705 67.7733 55.5709 65.6724L67.7516 29.1303C68.1528 27.9267 68.0636 26.8332 67.5 26.0514Z" fill="#97D5FF"/>
<path d="M67.2463 25.7546L42.4854 50.5159C43.2609 51.2915 43.937 52.1664 44.3012 52.9288L50.536 65.9845C51.3736 67.7383 52.4779 68.0001 53.0611 68.0001C53.5824 68.0001 54.8707 67.7734 55.5708 65.6725L67.7515 29.1304C68.1527 27.9268 68.0635 26.8333 67.4999 26.0515C67.4228 25.9446 67.3375 25.8462 67.2463 25.7546Z" fill="#66BEF9"/>
<path d="M43.3767 50.8829C43.0545 50.8829 42.7321 50.7599 42.486 50.5138C41.9942 50.0217 41.9942 49.2242 42.486 48.7321L65.4643 25.7538C65.9564 25.2617 66.7539 25.2617 67.246 25.7538C67.7378 26.2459 67.7378 27.0435 67.246 27.5352L44.2674 50.5138C44.0217 50.7599 43.6992 50.8829 43.3767 50.8829Z" fill="#93D4FF"/>
<path d="M42.4863 50.5139C42.7324 50.7599 43.0549 50.883 43.377 50.883C43.6995 50.883 44.022 50.7599 44.2677 50.5139L67.2463 27.5353C67.7381 27.0435 67.7381 26.246 67.2463 25.7539L42.4863 50.5139Z" fill="#33ADFF"/>
</g>
<g clip-path="url(#clip1)">
<path d="M87 17.0003C91.9705 17.0003 96 21.0297 96 26.0003C96 30.9708 91.9705 35.0002 87 35.0002C82.0295 35.0002 78 30.9708 78 26.0003C77.9859 21.0438 81.9924 17.0144 86.9488 17.0003C86.9659 17.0002 86.9829 17.0002 87 17.0003Z" fill="#3BB54A"/>
<path d="M91.9862 23.5199L85.5942 29.912L82.0146 26.358L83.4721 24.9262L85.5942 27.0228L90.5289 22.0881L91.9862 23.5199Z" fill="white"/>
</g>
<defs>
<clipPath id="clip0">
<rect width="43" height="43" fill="white" transform="translate(25 25)"/>
</clipPath>
<clipPath id="clip1">
<rect width="18" height="18" fill="white" transform="translate(78 17)"/>
</clipPath>
</defs>
</svg>
